# xmcd
#
# Track frame offsets:
#  150
#  10427
#  20218
#  33451
#  43661
#  53894
#  64613
#  76461
#  87247
#  97884
#  108200
#  118116
#  129915
#  142590
#  152635
#  162925
#  172494
#  182645
#  193660
#  204554
#  215391
#  225895
#  235684
#  243978
#  255156
#  264414
#  274032
#  283251
#  293324
#  303687
#  314516
#  324424
#
# Disc length: 4448 seconds
#
# Revision: 0
# Processed by: cddbd v1.5.2PL0 Copyright (c) Steve Scherf et al.
# Submitted via: AltoMP3_Maker 3.0
#
DISCID=b8115e20
DTITLE=Various Artist - RCA Victor Hillbilly, Vol. 4
DYEAR=1900
DGENRE=
TTITLE0=Oklahoma Wranglers - Country Kisses
TTITLE1=Elton Britt - Jackass Blues
TTITLE2=Wade Ray - The Fiddlin' Rag
TTITLE3=Hank Penny - You're Bound to Look Like a Monkey
TTITLE4=Jack Turner - Shoot, I Reckon I Love You
TTITLE5=Eddie Marshall - Honky Tonk Blues
TTITLE6=Eddie Kirk - Hit and Run Lover
TTITLE7=Lee Bell - Let Me Love You
TTITLE8=Bobby Williamson - I Need Everything
TTITLE9=Johnny and Jack - I Never Can Come Back to You
TTITLE10=Rosalie Allen and Chet Atkins - Dream Train
TTITLE11=Johnnie Lee Wills - Sold Out Doc
TTITLE12=Jesse Rogers - But I'll Go Chasin' Women
TTITLE13=Texas Jim Robertson - I'm Gonna Be Long Gone
TTITLE14=Hannk Snow - The Gold Rush Is Over
TTITLE15=Ken Marvin - How About a Date
TTITLE16=Kenny Lee - It's Tit for Tat
TTITLE17=Porter Wagoner - Takin' Chances
TTITLE18=Eddy Arnold - Two Kinds of Love
TTITLE19=Diamond Bros - Sugar Coated Lemon
TTITLE20=Eddie Hill - Knock It Off
TTITLE21=Tom James - Sample of Your Love
TTITLE22=Eddie Kirk - Wanderin' Eyes
TTITLE23=Red Garrett - Moon Tan
TTITLE24=Minnie Pearl - Huntin' Season
TTITLE25=Jack Turner - I'm Gettin' Married Tonight
TTITLE26=Rita Robbins - If You Don't Somebody Else Will
TTITLE27=Charline Arthur - Soft Hearted Gal
TTITLE28=Jerry Glenn (Kennedy) - Too Young to Cut the Mustard
TTITLE29=Jimmy Murphy - We Live a Long Time to Get Old
TTITLE30=Jim Boyd - The Big "D" Boogie
TTITLE31=Diamond Bros - Hickory Stick
EXTD=
EXTT0=
EXTT1=
EXTT2=
EXTT3=
EXTT4=
EXTT5=
EXTT6=
EXTT7=
EXTT8=
EXTT9=
EXTT10=
EXTT11=
EXTT12=
EXTT13=
EXTT14=
EXTT15=
EXTT16=
EXTT17=
EXTT18=
EXTT19=
EXTT20=
EXTT21=
EXTT22=
EXTT23=
EXTT24=
EXTT25=
EXTT26=
EXTT27=
EXTT28=
EXTT29=
EXTT30=
EXTT31=
PLAYORDER=
